<?xml version="1.0" encoding="UTF-8"?>
<svg id="_1" data-name="1" xmlns="http://www.w3.org/2000/svg" viewBox="0 0 272.88 260.97">
  <defs>
    <style>
      .cls-1 {
        fill: #4d3513;
      }

      .cls-2 {
        fill: #f6c926;
      }
    </style>
  </defs>
  <path class="cls-1" d="M242.84,260.97H30.04c-16.56,0-30.04-13.47-30.04-30.04V30.04C0,13.47,13.47,0,30.04,0h178.96v51.36c0,6.96,5.67,12.63,12.63,12.63h51.25v166.94c0,16.56-13.47,30.04-30.04,30.04ZM30.04,12.95c-9.42,0-17.09,7.67-17.09,17.09v200.89c0,9.42,7.67,17.09,17.09,17.09h212.81c9.42,0,17.09-7.67,17.09-17.09V76.94h-38.3c-14.1,0-25.58-11.47-25.58-25.58V12.95H30.04Z"/>
  <g>
    <path class="cls-2" d="M266.41,66.27v4.19h-44.77c-10.55,0-19.11-8.55-19.11-19.1V6.47h4.09l59.8,59.8Z"/>
    <path class="cls-1" d="M272.88,76.94h-51.24c-14.11,0-25.59-11.47-25.59-25.58V0h13.24l63.59,63.59v13.35ZM209,18.02v33.34c0,6.96,5.67,12.63,12.64,12.63h33.33l-45.97-45.97Z"/>
  </g>
  <g>
    <ellipse class="cls-2" cx="136.44" cy="191.41" rx="25.93" ry="26.07"/>
    <path class="cls-1" d="M136.44,223.95c-17.87,0-32.4-14.6-32.4-32.54s14.54-32.54,32.4-32.54,32.4,14.6,32.4,32.54-14.54,32.54-32.4,32.54ZM136.44,171.82c-10.73,0-19.46,8.79-19.46,19.59s8.73,19.59,19.46,19.59,19.46-8.79,19.46-19.59-8.73-19.59-19.46-19.59Z"/>
  </g>
  <g>
    <path class="cls-2" d="M211.81,176.52c-1.31-13.45-16.17-7.93-18.74-52.01-1.51-25.87-18.61-52.01-56.63-52.01s-55.13,26.14-56.63,52.01c-2.57,44.07-17.43,38.56-18.74,52.01-1.35,13.82,9.24,13.82,14.05,13.82h122.64c4.81,0,15.4,0,14.05-13.82Z"/>
    <path class="cls-1" d="M197.76,196.81h-122.64c-3.66,0-11.28,0-16.39-5.63-3.36-3.7-4.74-8.84-4.11-15.29.66-6.81,3.96-10.51,6.86-13.78,4.35-4.89,10.32-11.59,11.85-37.98.9-15.41,6.71-29.53,16.38-39.77,11.32-11.99,27.47-18.33,46.72-18.33s35.4,6.34,46.72,18.33c9.66,10.24,15.48,24.36,16.38,39.77,1.54,26.39,7.5,33.09,11.85,37.98,2.91,3.26,6.2,6.96,6.86,13.78h0c.63,6.45-.75,11.59-4.11,15.29-5.11,5.63-12.73,5.63-16.39,5.63ZM136.44,78.98c-35.02,0-48.88,23.71-50.17,45.91-1.8,30.88-9.81,39.88-15.11,45.83-2.58,2.9-3.4,3.93-3.65,6.42-.25,2.55.05,4.49.81,5.33,1.25,1.38,4.86,1.38,6.8,1.38h122.64c1.94,0,5.54,0,6.8-1.38.77-.84,1.06-2.79.81-5.33h0c-.24-2.49-1.07-3.53-3.65-6.42-5.3-5.95-13.31-14.95-15.11-45.83-1.29-22.19-15.15-45.91-50.17-45.91Z"/>
  </g>
  <g>
    <path class="cls-2" d="M152.58,59.01c0,5.8-3.32,10.85-8.24,13.5h-15.8c-4.91-2.65-8.24-7.7-8.24-13.5,0-8.55,7.23-15.49,16.14-15.49s16.13,6.93,16.13,15.49Z"/>
    <path class="cls-1" d="M145.97,78.98h-19.07l-1.44-.77c-7.18-3.87-11.64-11.23-11.64-19.2,0-12.11,10.15-21.96,22.61-21.96s22.61,9.85,22.61,21.96c0,7.98-4.46,15.34-11.64,19.2l-1.44.77ZM130.4,66.03h12.09c2.26-1.69,3.62-4.28,3.62-7.03,0-4.97-4.33-9.01-9.66-9.01s-9.67,4.04-9.67,9.01c0,2.75,1.36,5.33,3.62,7.03Z"/>
  </g>
</svg>