<?xml version="1.0" encoding="UTF-8"?>
<svg id="_3" data-name="3" xmlns="http://www.w3.org/2000/svg" viewBox="0 0 333 412.15">
  <defs>
    <style>
      .cls-1 {
        fill: #4d3513;
      }

      .cls-2 {
        fill: #f6c926;
      }
    </style>
  </defs>
  <g>
    <path class="cls-1" d="M55.71,365.52c-34.24,0-41.43,12.71-41.43,23.38s7.19,23.13,41.43,23.13,41.43-12.58,41.43-23.13c0-19.32-22.53-23.38-41.43-23.38ZM55.71,380.32c14.45,0,22.74,3.08,22.74,8.45s-8.29,8.45-22.74,8.45-22.74-3.08-22.74-8.45,8.29-8.45,22.74-8.45Z"/>
    <path class="cls-1" d="M105.09,346.22h-39.91v-7.51h25.62c4.28,0,6.84-2.98,6.84-7.96s-2.57-7.71-6.71-7.71h-54.14c-.91,0-1.44-.05-1.55-.1-.05-.08-.14-.38-.14-1.46v-10.78c0-.83.04-1.32.08-1.42.08-.05.39-.14,1.48-.14h53.64c4.14,0,6.71-2.96,6.71-7.71s-2.51-7.96-6.71-7.96H29.27c-9.64,0-13.23,3.45-13.23,12.73v19.93c0,10.54,4.85,12.6,13.23,12.6h16.98v7.51H6.08c-4.18,0-6.08,4.06-6.08,7.84s1.9,7.84,6.08,7.84h99.01c4.08,0,6.21-3.94,6.21-7.84s-2.13-7.84-6.21-7.84Z"/>
    <path class="cls-1" d="M212.12,290.2c-5.21,0-8.84,2.81-8.84,6.84v104.65c0,4.67,3.31,7.46,8.84,7.46s8.97-2.72,8.97-7.46v-104.65c0-4.09-3.6-6.84-8.97-6.84Z"/>
    <path class="cls-1" d="M166.88,359.63c-.54,0-1.15,0-1.8.16-7.02,1.82-16.3,2.47-22.64,2.47h-3.51q-1.94,0-1.94-1.94v-53.64c0-4.3-3.52-7.09-8.97-7.09s-9.09,2.98-9.09,7.09v57.53c0,12.58,5.53,14.61,18.74,14.61s23.96-1.28,31.33-3.7c2.79-.93,4.45-3.65,4.45-7.28,0-4.84-2.71-8.21-6.58-8.21Z"/>
    <path class="cls-1" d="M187.43,292.46c-5.21,0-8.72,2.75-8.72,6.84v27.25h-18.23c-4.2,0-6.71,3.02-6.71,8.09s2.51,7.71,6.71,7.71h18.23v56.96c0,4.59,3.26,7.34,8.72,7.34s8.72-2.81,8.72-7.34v-100.01c0-4.09-3.5-6.84-8.72-6.84Z"/>
    <path class="cls-1" d="M323.28,366.16c5.61,0,9.09-3,9.09-7.84v-61.03c0-4.17-3.74-7.09-9.09-7.09s-9.22,2.98-9.22,7.09v61.03c0,4.83,3.53,7.84,9.22,7.84Z"/>
    <path class="cls-1" d="M259.72,360.11c19.11,0,35.67-1.38,44.46-3.77,3.39-.97,5.18-4.73,4.35-9.15-.45-2.3-1.58-4.13-3.19-5.14-1.37-.86-3.03-1.1-4.63-.69-11.05,2.42-26.08,3.44-42.3,2.86q-1.99-.09-1.99-2.19v-5.64q0-1.44,1.56-1.44h24.69c8.15,0,11.47-3.47,11.47-11.97v-14.91c0-8.15-3.32-11.47-11.47-11.47h-38.35c-4.06,0-6.58,3.1-6.58,8.09,0,3.84,2.04,7.71,6.58,7.71h29.7q1.69,0,1.69,1.44v5.14c0,1.78,0,1.81-1.69,1.81h-25.07c-7.59,0-10.97,3.34-10.97,10.85v15.79c0,9.04,3.51,12.46,12.95,12.6,2.97.06,5.91.09,8.78.09Z"/>
    <path class="cls-1" d="M291.82,364.02c-35.61,0-40.92,15.2-40.92,24.26,0,15.18,14.92,23.88,40.92,23.88s41.17-8.7,41.17-23.88c0-9.06-5.35-24.26-41.17-24.26ZM291.82,397.23c-13.85,0-22.12-3.39-22.12-9.08s8.06-9.21,22.12-9.21,22.37,3.36,22.37,9.21-8.15,9.08-22.37,9.08Z"/>
  </g>
  <g>
    <path class="cls-1" d="M273.9,260.97H61.1c-16.56,0-30.04-13.47-30.04-30.04V30.04C31.06,13.47,44.53,0,61.1,0h178.96v51.36c0,6.96,5.67,12.63,12.63,12.63h51.25v166.94c0,16.56-13.47,30.04-30.04,30.04ZM61.1,12.95c-9.42,0-17.09,7.67-17.09,17.09v200.89c0,9.42,7.67,17.09,17.09,17.09h212.81c9.42,0,17.09-7.67,17.09-17.09V76.94h-38.3c-14.1,0-25.58-11.47-25.58-25.58V12.95H61.1Z"/>
    <g>
      <path class="cls-2" d="M297.47,66.27v4.19h-44.77c-10.55,0-19.11-8.55-19.11-19.1V6.47h4.09l59.8,59.8Z"/>
      <path class="cls-1" d="M303.94,76.94h-51.24c-14.11,0-25.59-11.47-25.59-25.58V0h13.24l63.59,63.59v13.35ZM240.06,18.02v33.34c0,6.96,5.67,12.63,12.64,12.63h33.33l-45.97-45.97Z"/>
    </g>
    <g>
      <ellipse class="cls-2" cx="167.5" cy="191.41" rx="25.93" ry="26.07"/>
      <path class="cls-1" d="M167.5,223.95c-17.87,0-32.4-14.6-32.4-32.54s14.54-32.54,32.4-32.54,32.4,14.6,32.4,32.54-14.54,32.54-32.4,32.54ZM167.5,171.82c-10.73,0-19.46,8.79-19.46,19.59s8.73,19.59,19.46,19.59,19.46-8.79,19.46-19.59-8.73-19.59-19.46-19.59Z"/>
    </g>
    <g>
      <path class="cls-2" d="M242.87,176.52c-1.31-13.45-16.17-7.93-18.74-52.01-1.51-25.87-18.61-52.01-56.63-52.01s-55.13,26.14-56.63,52.01c-2.57,44.07-17.43,38.56-18.74,52.01-1.35,13.82,9.24,13.82,14.05,13.82h122.64c4.81,0,15.4,0,14.05-13.82Z"/>
      <path class="cls-1" d="M228.82,196.81h-122.64c-3.66,0-11.28,0-16.39-5.63-3.36-3.7-4.74-8.84-4.11-15.29.66-6.81,3.96-10.51,6.86-13.78,4.35-4.89,10.32-11.59,11.85-37.98.9-15.41,6.71-29.53,16.38-39.77,11.32-11.99,27.47-18.33,46.72-18.33s35.4,6.34,46.72,18.33c9.66,10.24,15.48,24.37,16.38,39.77,1.54,26.39,7.5,33.08,11.85,37.98,2.91,3.26,6.2,6.96,6.86,13.78h0c.63,6.45-.75,11.59-4.11,15.29-5.11,5.63-12.73,5.63-16.39,5.63ZM167.5,78.98c-35.02,0-48.88,23.71-50.17,45.91-1.8,30.88-9.81,39.88-15.11,45.83-2.58,2.9-3.4,3.93-3.65,6.42-.25,2.55.05,4.49.81,5.33,1.26,1.38,4.86,1.38,6.8,1.38h122.64c1.94,0,5.54,0,6.8-1.38.76-.84,1.06-2.79.81-5.33h0c-.24-2.49-1.07-3.53-3.65-6.42-5.3-5.95-13.31-14.95-15.11-45.83-1.29-22.19-15.15-45.91-50.17-45.91Z"/>
    </g>
    <g>
      <path class="cls-2" d="M183.64,59.01c0,5.8-3.32,10.85-8.24,13.5h-15.8c-4.91-2.65-8.24-7.7-8.24-13.5,0-8.55,7.23-15.49,16.14-15.49s16.13,6.93,16.13,15.49Z"/>
      <path class="cls-1" d="M177.03,78.98h-19.07l-1.44-.77c-7.18-3.87-11.64-11.23-11.64-19.2,0-12.11,10.15-21.96,22.61-21.96s22.61,9.85,22.61,21.96c0,7.98-4.46,15.34-11.64,19.2l-1.44.77ZM161.46,66.03h12.09c2.26-1.69,3.62-4.28,3.62-7.03,0-4.97-4.33-9.01-9.66-9.01s-9.67,4.04-9.67,9.01c0,2.75,1.36,5.33,3.62,7.03Z"/>
    </g>
  </g>
</svg>