<?xml version="1.0" encoding="UTF-8"?>
<svg id="_4" data-name="4" xmlns="http://www.w3.org/2000/svg" viewBox="0 0 417.76 152.99">
  <defs>
    <style>
      .cls-1 {
        fill: #4d3513;
      }
    </style>
  </defs>
  <path class="cls-1" d="M69.89,94.49c-42.95,0-51.97,15.95-51.97,29.33s9.02,29.01,51.97,29.01,51.97-15.78,51.97-29.01c0-24.24-28.26-29.33-51.97-29.33ZM69.89,113.06c18.13,0,28.53,3.87,28.53,10.61s-10.4,10.61-28.53,10.61-28.53-3.87-28.53-10.61,10.4-10.61,28.53-10.61Z"/>
  <path class="cls-1" d="M131.84,70.28h-50.07v-9.42h32.15c5.37,0,8.58-3.73,8.58-9.99s-3.23-9.68-8.42-9.68H46.15c-1.14,0-1.8-.06-1.94-.12-.06-.1-.17-.48-.17-1.84v-13.52c0-1.04.05-1.66.1-1.79.11-.06.49-.17,1.86-.17h67.29c5.19,0,8.42-3.71,8.42-9.68s-3.15-9.99-8.42-9.99H36.72c-12.1,0-16.59,4.33-16.59,15.96v25c0,13.22,6.08,15.81,16.59,15.81h21.3v9.42H7.63c-5.24,0-7.63,5.1-7.63,9.83s2.39,9.83,7.63,9.83h124.21c5.11,0,7.79-4.95,7.79-9.83s-2.68-9.83-7.79-9.83Z"/>
  <path class="cls-1" d="M266.11,0c-6.53,0-11.09,3.53-11.09,8.58v131.28c0,5.86,4.15,9.36,11.09,9.36s11.25-3.41,11.25-9.36V8.58c0-5.13-4.52-8.58-11.25-8.58Z"/>
  <path class="cls-1" d="M209.35,87.1c-.68,0-1.44,0-2.26.21-8.81,2.28-20.44,3.1-28.4,3.1h-4.4q-2.43,0-2.43-2.43V20.68c0-5.4-4.42-8.89-11.25-8.89s-11.41,3.74-11.41,8.89v72.17c0,15.78,6.93,18.32,23.51,18.32s30.06-1.6,39.31-4.64c3.5-1.17,5.58-4.58,5.58-9.13,0-6.07-3.4-10.3-8.26-10.3Z"/>
  <path class="cls-1" d="M235.14,2.83c-6.54,0-10.93,3.45-10.93,8.58v34.19h-22.87c-5.27,0-8.42,3.79-8.42,10.15s3.15,9.68,8.42,9.68h22.87v71.45c0,5.76,4.09,9.2,10.93,9.2s10.93-3.53,10.93-9.2V11.41c0-5.13-4.39-8.58-10.93-8.58Z"/>
  <path class="cls-1" d="M405.57,95.29c7.04,0,11.41-3.77,11.41-9.83V8.89c0-5.23-4.69-8.89-11.41-8.89s-11.56,3.74-11.56,8.89v76.57c0,6.07,4.43,9.83,11.56,9.83Z"/>
  <path class="cls-1" d="M325.83,87.71c23.98,0,44.75-1.73,55.78-4.74,4.25-1.22,6.5-5.93,5.46-11.48-.56-2.88-1.98-5.18-4-6.45-1.72-1.08-3.8-1.39-5.81-.86-13.86,3.04-32.71,4.31-53.07,3.58q-2.5-.11-2.5-2.75v-7.08q0-1.8,1.96-1.8h30.97c10.22,0,14.39-4.35,14.39-15.02v-18.71c0-10.22-4.17-14.39-14.39-14.39h-48.11c-5.1,0-8.26,3.89-8.26,10.15,0,4.82,2.55,9.68,8.26,9.68h37.26q2.12,0,2.12,1.8v6.45c0,2.23,0,2.27-2.12,2.27h-31.45c-9.52,0-13.76,4.2-13.76,13.61v19.81c0,11.35,4.41,15.63,16.25,15.81,3.73.08,7.41.12,11.02.12Z"/>
  <path class="cls-1" d="M366.1,92.61c-44.67,0-51.34,19.07-51.34,30.43,0,19.04,18.71,29.96,51.34,29.96s51.66-10.92,51.66-29.96c0-11.36-6.71-30.43-51.66-30.43ZM366.1,134.27c-17.37,0-27.74-4.26-27.74-11.39s10.11-11.55,27.74-11.55,28.06,4.21,28.06,11.55-10.23,11.39-28.06,11.39Z"/>
</svg>