<?xml version="1.0" encoding="UTF-8"?>
<svg id="_2" data-name="2" xmlns="http://www.w3.org/2000/svg" viewBox="0 0 742.97 260.97">
  <defs>
    <style>
      .cls-1 {
        fill: #4d3513;
      }

      .cls-2 {
        fill: #f6c926;
      }
    </style>
  </defs>
  <g>
    <path class="cls-1" d="M395.11,148.48c-42.95,0-51.97,15.95-51.97,29.33s9.02,29.01,51.97,29.01,51.97-15.78,51.97-29.01c0-24.24-28.26-29.33-51.97-29.33ZM395.11,167.05c18.13,0,28.53,3.87,28.53,10.61s-10.4,10.61-28.53,10.61-28.53-3.87-28.53-10.61,10.4-10.61,28.53-10.61Z"/>
    <path class="cls-1" d="M457.06,124.27h-50.07v-9.42h32.15c5.37,0,8.58-3.73,8.58-9.99s-3.23-9.68-8.42-9.68h-67.92c-1.14,0-1.8-.06-1.94-.12-.06-.1-.17-.48-.17-1.84v-13.52c0-1.04.05-1.66.1-1.79.11-.06.49-.17,1.86-.17h67.29c5.19,0,8.42-3.71,8.42-9.68s-3.15-9.99-8.42-9.99h-76.57c-12.1,0-16.59,4.33-16.59,15.96v25c0,13.22,6.08,15.81,16.59,15.81h21.3v9.42h-50.38c-5.24,0-7.63,5.1-7.63,9.83s2.39,9.83,7.63,9.83h124.21c5.11,0,7.79-4.95,7.79-9.83s-2.68-9.83-7.79-9.83Z"/>
    <path class="cls-1" d="M591.32,53.99c-6.53,0-11.09,3.53-11.09,8.58v131.28c0,5.86,4.15,9.36,11.09,9.36s11.25-3.41,11.25-9.36V62.56c0-5.13-4.52-8.58-11.25-8.58Z"/>
    <path class="cls-1" d="M534.57,141.09c-.68,0-1.44,0-2.26.21-8.81,2.28-20.44,3.1-28.4,3.1h-4.4q-2.43,0-2.43-2.43v-67.29c0-5.4-4.42-8.89-11.25-8.89s-11.41,3.74-11.41,8.89v72.17c0,15.78,6.93,18.32,23.51,18.32s30.06-1.6,39.31-4.64c3.5-1.17,5.58-4.58,5.58-9.13,0-6.07-3.4-10.3-8.26-10.3Z"/>
    <path class="cls-1" d="M560.35,56.82c-6.54,0-10.93,3.45-10.93,8.58v34.19h-22.87c-5.27,0-8.42,3.79-8.42,10.15s3.15,9.68,8.42,9.68h22.87v71.45c0,5.76,4.09,9.2,10.93,9.2s10.93-3.53,10.93-9.2v-125.47c0-5.13-4.39-8.58-10.93-8.58Z"/>
    <path class="cls-1" d="M730.78,149.28c7.04,0,11.41-3.77,11.41-9.83V62.88c0-5.23-4.69-8.89-11.41-8.89s-11.56,3.74-11.56,8.89v76.57c0,6.07,4.43,9.83,11.56,9.83Z"/>
    <path class="cls-1" d="M651.05,141.69c23.98,0,44.75-1.73,55.78-4.74,4.25-1.22,6.5-5.93,5.46-11.48-.56-2.88-1.98-5.18-4-6.45-1.72-1.08-3.8-1.39-5.81-.86-13.86,3.04-32.71,4.31-53.07,3.58q-2.5-.11-2.5-2.75v-7.08q0-1.8,1.96-1.8h30.97c10.22,0,14.39-4.35,14.39-15.02v-18.71c0-10.22-4.17-14.39-14.39-14.39h-48.11c-5.1,0-8.26,3.89-8.26,10.15,0,4.82,2.55,9.68,8.26,9.68h37.26q2.12,0,2.12,1.8v6.45c0,2.23,0,2.27-2.12,2.27h-31.45c-9.52,0-13.76,4.2-13.76,13.61v19.81c0,11.35,4.41,15.63,16.25,15.81,3.73.08,7.41.12,11.02.12Z"/>
    <path class="cls-1" d="M691.32,146.59c-44.67,0-51.34,19.07-51.34,30.43,0,19.04,18.71,29.96,51.34,29.96s51.66-10.92,51.66-29.96c0-11.36-6.71-30.43-51.66-30.43ZM691.32,188.26c-17.37,0-27.74-4.26-27.74-11.39s10.11-11.55,27.74-11.55,28.06,4.21,28.06,11.55-10.23,11.39-28.06,11.39Z"/>
  </g>
  <g>
    <path class="cls-1" d="M242.84,260.97H30.04c-16.56,0-30.04-13.47-30.04-30.04V30.04C0,13.47,13.47,0,30.04,0h178.96v51.36c0,6.96,5.67,12.63,12.63,12.63h51.25v166.94c0,16.56-13.47,30.04-30.04,30.04ZM30.04,12.95c-9.42,0-17.09,7.67-17.09,17.09v200.89c0,9.42,7.67,17.09,17.09,17.09h212.81c9.42,0,17.09-7.67,17.09-17.09V76.94h-38.3c-14.1,0-25.58-11.47-25.58-25.58V12.95H30.04Z"/>
    <g>
      <path class="cls-2" d="M266.41,66.27v4.19h-44.77c-10.55,0-19.11-8.55-19.11-19.1V6.47h4.09l59.8,59.8Z"/>
      <path class="cls-1" d="M272.88,76.94h-51.24c-14.11,0-25.59-11.47-25.59-25.58V0h13.24l63.59,63.59v13.35ZM209,18.02v33.34c0,6.96,5.67,12.63,12.64,12.63h33.33l-45.97-45.97Z"/>
    </g>
    <g>
      <ellipse class="cls-2" cx="136.44" cy="191.41" rx="25.93" ry="26.07"/>
      <path class="cls-1" d="M136.44,223.95c-17.87,0-32.4-14.6-32.4-32.54s14.54-32.54,32.4-32.54,32.4,14.6,32.4,32.54-14.54,32.54-32.4,32.54ZM136.44,171.82c-10.73,0-19.46,8.79-19.46,19.59s8.73,19.59,19.46,19.59,19.46-8.79,19.46-19.59-8.73-19.59-19.46-19.59Z"/>
    </g>
    <g>
      <path class="cls-2" d="M211.81,176.52c-1.31-13.45-16.17-7.93-18.74-52.01-1.51-25.87-18.61-52.01-56.63-52.01s-55.13,26.14-56.63,52.01c-2.57,44.07-17.43,38.56-18.74,52.01-1.35,13.82,9.24,13.82,14.05,13.82h122.64c4.81,0,15.4,0,14.05-13.82Z"/>
      <path class="cls-1" d="M197.76,196.81h-122.64c-3.66,0-11.28,0-16.39-5.63-3.36-3.7-4.74-8.84-4.11-15.29.66-6.81,3.96-10.51,6.86-13.78,4.35-4.89,10.32-11.59,11.85-37.98.9-15.41,6.71-29.53,16.38-39.77,11.32-11.99,27.47-18.33,46.72-18.33s35.4,6.34,46.72,18.33c9.66,10.24,15.48,24.37,16.38,39.77,1.54,26.39,7.5,33.09,11.85,37.98,2.91,3.26,6.2,6.96,6.86,13.78h0c.63,6.45-.75,11.59-4.11,15.29-5.11,5.63-12.73,5.63-16.39,5.63ZM136.44,78.98c-35.02,0-48.88,23.71-50.17,45.91-1.8,30.88-9.81,39.88-15.11,45.83-2.58,2.9-3.4,3.93-3.65,6.42-.25,2.55.05,4.49.81,5.33,1.25,1.38,4.86,1.38,6.8,1.38h122.64c1.94,0,5.54,0,6.8-1.38.76-.84,1.06-2.79.81-5.33h0c-.24-2.49-1.07-3.53-3.65-6.42-5.3-5.95-13.31-14.95-15.11-45.83-1.29-22.19-15.15-45.91-50.17-45.91Z"/>
    </g>
    <g>
      <path class="cls-2" d="M152.58,59.01c0,5.8-3.32,10.85-8.24,13.5h-15.8c-4.91-2.65-8.24-7.7-8.24-13.5,0-8.55,7.23-15.49,16.14-15.49s16.13,6.93,16.13,15.49Z"/>
      <path class="cls-1" d="M145.97,78.98h-19.07l-1.44-.77c-7.18-3.87-11.64-11.23-11.64-19.2,0-12.11,10.15-21.96,22.61-21.96s22.61,9.85,22.61,21.96c0,7.98-4.46,15.34-11.64,19.2l-1.44.77ZM130.4,66.03h12.09c2.26-1.69,3.62-4.28,3.62-7.03,0-4.97-4.33-9.01-9.66-9.01s-9.67,4.04-9.67,9.01c0,2.75,1.36,5.33,3.62,7.03Z"/>
    </g>
  </g>
</svg>