<svg xmlns="http://www.w3.org/2000/svg" width="16" height="16" viewBox="0 0 16 16" fill="none">
<path d="M2.96693 9.27218L7.60202 13.6264C7.76168 13.7763 7.84148 13.8513 7.93562 13.8698C7.97802 13.8781 8.02162 13.8781 8.06402 13.8698C8.15815 13.8513 8.23795 13.7763 8.39762 13.6264L13.0327 9.27218C14.3368 8.04712 14.4952 6.03112 13.3984 4.61743L13.1922 4.35161C11.88 2.66044 9.24622 2.94406 8.32428 4.87582C8.19402 5.14869 7.80562 5.14869 7.67535 4.87582C6.75342 2.94406 4.11963 2.66044 2.80751 4.35162L2.60128 4.61743C1.50445 6.03112 1.66282 8.04712 2.96693 9.27218Z" stroke="#5F6776" stroke-width="2"/>
</svg>