<svg xmlns="http://www.w3.org/2000/svg" width="16" height="16" viewBox="0 0 16 16" fill="none">
  <path d="M2.96745 9.27247L7.60252 13.6266C7.65436 13.6753 7.68028 13.6997 7.70496 13.7177C7.88082 13.8465 8.11983 13.8465 8.29569 13.7177C8.32037 13.6997 8.34629 13.6753 8.39813 13.6266L13.0332 9.27247C14.3373 8.04739 14.4957 6.03139 13.3989 4.6177L13.1926 4.35189C11.8805 2.66071 9.24675 2.94433 8.32477 4.87609C8.19454 5.14896 7.80612 5.14896 7.67588 4.87609C6.75391 2.94433 4.12014 2.66071 2.80802 4.35189L2.60178 4.6177C1.50496 6.03139 1.66333 8.04739 2.96745 9.27247Z" fill="#121823" stroke="#121823" stroke-width="2"/>
</svg>