<svg xmlns="http://www.w3.org/2000/svg" width="24" height="24" viewBox="0 0 24 24" fill="none">
  <path d="M12 11C14.2091 11 16 9.20914 16 7C16 4.79086 14.2091 3 12 3C9.79086 3 8 4.79086 8 7C8 9.20914 9.79086 11 12 11Z" stroke="#121823" stroke-width="2" stroke-linecap="round"/>
  <path d="M5.33815 18.3206C5.99924 15.5269 8.772 14 11.6429 14H12.3577C15.2286 14 18.0013 15.5269 18.6624 18.3206C18.7903 18.8611 18.892 19.4268 18.9492 20.0016C19.0039 20.5512 18.5526 21 18.0003 21H6.00027C5.44799 21 4.99669 20.5512 5.05137 20.0016C5.10857 19.4268 5.21024 18.8611 5.33815 18.3206Z" stroke="#121823" stroke-width="2" stroke-linecap="round"/>
</svg>